<svg width="64" height="38" viewBox="0 0 64 38" fill="none" xmlns="http://www.w3.org/2000/svg">
    <path fill-rule="evenodd" clip-rule="evenodd" d="M15.4666 2.98586C13.3333 0.814522 4.26662 0.271719 1.33325 0C1.06663 0 0.8 0 0.53325 0.271592C0.2665 0.543184 0 1.08599 0 1.35732V25.7856C0 26.5999 0.533375 27.1428 1.33337 27.1428H9.33337C9.60837 27.1479 9.87923 27.0742 10.115 26.9302C10.3508 26.7863 10.542 26.5777 10.6667 26.3285C10.6667 25.5143 15.4668 11.1285 16.0001 4.07172C16 3.8 16 3.25745 15.4666 2.98586ZM44 9.50013C41.3334 8.68586 38.9334 7.60025 36.8 6.78586C32 4.61439 29.8666 5.70025 25.6 10.0429C23.7334 11.9429 22.4 14.6572 22.6666 15.7428C22.6666 16.0141 22.6666 16.0141 23.2 16.2857C24.5334 16.8287 26.4 17.1 28.2666 14.1143C28.5332 13.8429 28.8 13.5713 29.3333 13.5713C30.1332 13.5713 30.3999 13.3 31.1999 13.0285C31.8002 12.708 32.4243 12.4357 33.0665 12.2143H33.6C33.8666 12.2143 34.4 12.4856 34.6666 12.4856C36 13.8431 38.4 15.7429 40.8 17.9144C44.5334 20.9001 48.2666 24.1572 50.1334 26.6H50.4C48.5334 21.1715 45.3334 11.9429 44 9.50013ZM62.6666 2.71452C52.2666 2.71452 46.4 5.42879 46.1333 5.42879L45.3332 6.24306C45.3332 6.51439 45.3333 7.05732 45.5999 7.32879C47.1999 10.0431 52.5332 24.9715 53.3332 28.7713C53.5999 29.3143 54.1333 29.8571 54.6666 29.8571H62.6666C63.4666 29.8571 64 29.3141 64 28.4999V4.07147C64 3.25745 63.4666 2.71452 62.6666 2.71452ZM48.2666 29.3145C47.2 26.8717 42.6666 23.3432 38.6666 20.0861C36.5334 18.1857 34.4 16.5572 32.8 15.2C32.5334 15.4715 32 15.4715 32 15.7429C31.2 16.0143 30.9334 16.2859 29.8666 16.2859C27.7334 19 25.0666 20.0859 22.1334 19C20.8 18.7287 20 17.6429 19.7334 16.5572C19.2 13.8431 21.6 10.0431 23.4667 8.14306H18.1334C17.0667 13.5716 15.2 20.6285 13.8667 24.4285C14.9334 25.5143 16.0001 26.8715 16.8001 27.4143C21.8668 31.7571 27.7335 36.1 28.8001 36.9143C29.6 37.4572 31.2 38 32 38H32.8L28.5333 33.6572C28.4105 33.5326 28.3132 33.3846 28.2467 33.2217C28.1803 33.0589 28.146 32.8843 28.1459 32.708C28.1458 32.5316 28.1799 32.357 28.2461 32.1941C28.3124 32.0311 28.4096 31.883 28.5322 31.7583C28.6548 31.6335 28.8003 31.5345 28.9605 31.467C29.1207 31.3994 29.2924 31.3646 29.4658 31.3645C29.6392 31.3644 29.811 31.399 29.9713 31.4664C30.1315 31.5338 30.2772 31.6326 30.3999 31.7572L35.7332 37.1857C36.2666 37.7287 36.7999 37.4572 37.3332 37.4572C38.1332 37.1857 38.3999 36.6428 38.6666 35.8285L32.5332 29.5857C32.2854 29.334 32.1461 28.9926 32.1459 28.6365C32.1457 28.2803 32.2847 27.9387 32.5322 27.6868C32.7798 27.4348 33.1157 27.2931 33.4659 27.2929C33.8162 27.2928 34.1522 27.434 34.4 27.6857L41.0666 34.4713C41.3332 34.7427 42.4 34.7427 43.2 34.4713C43.4666 34.1999 44 33.9284 44.2666 33.3856L36.8 25.7856C36.6764 25.6612 36.5781 25.5132 36.5109 25.3501C36.4437 25.187 36.4088 25.0119 36.4083 24.8351C36.4078 24.6582 36.4417 24.483 36.508 24.3195C36.5743 24.156 36.6717 24.0074 36.7946 23.8823C36.9175 23.7572 37.0636 23.658 37.2243 23.5904C37.3851 23.5228 37.5574 23.4882 37.7313 23.4885C37.9053 23.4888 38.0774 23.5241 38.2379 23.5923C38.3985 23.6604 38.5441 23.7602 38.6666 23.8857L46.4 31.7571C46.9334 32.0284 47.4666 31.7571 48 31.4857C48.2666 31.2141 48.8 30.4 48.2666 29.3143V29.3145Z" fill="#FFE100"/>
</svg>
