<svg width="42" height="52" viewBox="0 0 42 52" fill="none" xmlns="http://www.w3.org/2000/svg">
    <path d="M26.1161 8.59363C28.896 8.59363 31.1488 10.8481 31.1488 13.6291C31.1488 16.4087 28.896 18.6635 26.1161 18.6635C23.3347 18.6635 21.0813 16.4087 21.0813 13.6291C21.0813 10.8481 23.3347 8.59363 26.1161 8.59363Z" fill="#FFE100"/>
    <path d="M28.7571 24.3988C30.5448 24.3988 31.9932 25.8476 31.9932 27.6346C31.9932 29.4229 30.5448 30.8723 28.7571 30.8723C26.9688 30.8723 25.5207 29.4229 25.5207 27.6346C25.5207 25.8476 26.9688 24.3988 28.7571 24.3988Z" fill="#FFE100"/>
    <path d="M12.6231 52H41.6547C41.6547 52 33.23 45.229 33.4073 37.8052C33.5131 33.669 41.6547 28.4035 41.6143 16.9103C41.5889 11.1303 35.9832 1.52187 26.4653 0.324198C16.9447 -0.874808 9.82013 1.2207 6.70692 7.09019C3.59004 12.9567 3.35397 18.1083 3.59337 19.0639C3.83578 20.0242 4.85181 21.8202 4.85181 21.8202C4.85181 21.8202 0.0617997 29.1838 0.35863 30.3802C0.661803 31.5808 3.9473 32.2256 3.9473 32.2256C3.9473 32.2256 4.24513 33.0593 3.64479 34.6747C3.04546 36.2927 4.75933 38.1699 5.27419 38.8249C5.78137 39.4774 4.55365 41.5168 4.97101 42.6567C5.38938 43.7913 7.36702 45.1686 9.64083 44.8711C11.9176 44.5699 14.8382 44.035 15.8525 43.8514C18.1427 49.242 12.6231 52 12.6231 52ZM34.1124 30.0573L33.1285 31.5681L32.1712 30.9394C31.7321 31.3912 31.1966 31.7581 30.5972 32.0102L30.8336 33.1358L29.072 33.503L28.8363 32.3798C28.1785 32.3905 27.5461 32.268 26.9658 32.0289L26.3371 32.9878L24.8256 32.0012L25.4523 31.0423C25.0029 30.6042 24.6339 30.07 24.3842 29.471L23.2569 29.7064L22.8863 27.9417L24.0149 27.7077C24.0059 27.0559 24.1261 26.4215 24.3638 25.8386L23.4052 25.2102L24.3908 23.7003L25.3511 24.3277C25.7892 23.8736 26.3221 23.507 26.9241 23.2552L26.6877 22.1307L28.4506 21.7597L28.687 22.8863C29.3388 22.8753 29.9735 22.9991 30.5565 23.2362L31.1849 22.2763L32.6941 23.2609L32.067 24.2218C32.5181 24.6602 32.8871 25.1918 33.1381 25.7948L34.259 25.5611L34.63 27.324L33.5064 27.5578C33.5171 28.2115 33.3936 28.8456 33.1555 29.4289L34.1124 30.0573ZM17.6252 10.2291L19.3674 10.6321C19.7641 9.73561 20.3441 8.91424 21.0893 8.22375L20.1421 6.70654L22.5177 5.22106L23.466 6.7386C24.4125 6.37298 25.4049 6.21071 26.3838 6.24611L26.7845 4.50853L29.5187 5.13725L29.1167 6.87449C30.0122 7.27383 30.8289 7.85313 31.5221 8.59671L33.0376 7.64912L34.5248 10.0271L33.0066 10.9717C33.3729 11.9189 33.5328 12.9119 33.5004 13.8902L35.2373 14.2932L34.6069 17.0248L32.8657 16.6218C32.471 17.5163 31.8917 18.34 31.1465 19.0298L32.0954 20.5457L29.7167 22.0308L28.7715 20.5153C27.8212 20.8826 26.8293 21.0452 25.8506 21.0078L25.4479 22.7454L22.7174 22.115L23.1164 20.3774C22.2229 19.9814 21.4018 19.4008 20.7143 18.6562L19.1951 19.6048L17.7093 17.2268L19.2285 16.2806C18.8613 15.3313 18.7006 14.342 18.7344 13.3637L16.9945 12.9617L17.6252 10.2291Z" fill="#FFE100"/>
</svg>
