<svg width="26" height="26" viewBox="0 0 26 26" fill="none" xmlns="http://www.w3.org/2000/svg">
    <path d="M18.2662 11.8593V7.87088H16.6969L22.2024 0H15.347C15.347 0 13.113 3.80902 13.0118 3.65649C13.0102 3.65405 13.0037 3.64263 13.0004 3.63936C12.9972 3.64344 12.9906 3.65486 12.989 3.65649C12.8879 3.80902 10.653 0 10.653 0H3.79761L9.30233 7.87088H7.73305V11.8593C6.01043 13.334 4.91503 15.5191 4.91503 17.9627C4.91503 22.4006 8.51198 26 12.9507 26C12.9678 26 12.9833 25.9976 13.0004 25.9976C13.0175 25.9976 13.033 26 13.0502 26C17.488 26 21.085 22.4022 21.085 17.9627C21.0842 15.5191 19.9896 13.334 18.2662 11.8593ZM17.0476 10.9997C15.869 10.3219 14.5061 9.92791 13.0494 9.92791C13.0322 9.92791 13.0167 9.93117 12.9996 9.93117C12.9825 9.93117 12.967 9.92791 12.9498 9.92791C11.4931 9.92791 10.1302 10.3219 8.95161 10.9997V9.08944H12.9996H17.0476V10.9997Z" fill="#FFE100"/>
</svg>
