<svg width="60" height="60" viewBox="0 0 60 60" fill="none" xmlns="http://www.w3.org/2000/svg">
    <g clip-path="url(#clip0)">
        <path d="M59.9775 38.0226L55.7751 15.0559C55.5199 13.6606 54.3941 12.657 53.0791 12.657C51.2034 12.657 50.0149 12.657 48.3251 12.657C47.0129 12.657 45.8839 13.6635 45.6291 15.0559L44.6818 20.2326L44.9668 20.2136L48.8144 16.3156L45.3702 22.3285L38.4206 22.7902C37.0945 22.1614 26.5771 17.1748 25.3227 16.58C24.8607 16.361 24.309 16.5578 24.0901 17.0196C23.8712 17.4815 24.0681 18.0332 24.5298 18.2522C25.9144 18.9087 34.9345 23.1855 36.3128 23.8389C36.0906 24.2025 35.9734 24.6349 36.0037 25.0925C36.0823 26.2751 37.1078 27.1633 38.2776 27.083L46.7967 26.517C47.5106 26.4695 48.1536 26.0679 48.5093 25.4468L52.5228 18.4401L50.3637 26.509C50.0442 27.7028 49.0036 28.511 47.8359 28.5904C46.6744 28.6666 47.6092 28.6047 43.095 28.9047L41.4267 38.0226C41.2832 38.8068 41.8387 39.5335 42.573 39.5335C42.9191 39.5335 45.6037 39.5335 45.9862 39.5335V55.7964C45.9862 57.3044 47.2086 58.5269 48.7167 58.5269C50.2247 58.5269 51.4472 57.3044 51.4472 55.7964V39.5335C52.0018 39.5335 52.5533 39.5335 53.0938 39.5335V55.7964C53.0938 56.7359 52.7953 57.6066 52.2894 58.3204C52.6103 58.4528 52.9615 58.5267 53.3301 58.5267C54.8381 58.5267 56.0607 57.3042 56.0607 55.7962V39.5335C57.1534 39.5335 58.1085 39.5335 58.8313 39.5335C59.5638 39.5335 60.1206 38.8055 59.9775 38.0226Z" fill="#FFE100"/>
        <path d="M50.7026 10.9049C53.3071 10.9049 55.4184 8.7935 55.4184 6.189C55.4184 3.58451 53.3071 1.47314 50.7026 1.47314C48.0981 1.47314 45.9867 3.58451 45.9867 6.189C45.9867 8.7935 48.0981 10.9049 50.7026 10.9049Z" fill="#FFE100"/>
        <path d="M15.6962 18.674C18.416 18.674 20.6209 16.4691 20.6209 13.7493C20.6209 11.0294 18.416 8.82458 15.6962 8.82458C12.9764 8.82458 10.7715 11.0294 10.7715 13.7493C10.7715 16.4691 12.9764 18.674 15.6962 18.674Z" fill="#FFE100"/>
        <path d="M24.2054 26.7246L17.4621 26.9215L13.1782 20.8663L18.1066 25.0167V21.952C18.1066 21.2266 17.8784 20.5583 17.4949 20.0242C16.9231 20.1883 16.32 20.2782 15.6961 20.2782C14.1191 20.2782 12.6709 19.7161 11.5415 18.7816H9.85642C8.88821 18.7816 8.21708 19.4544 7.48771 20.0462C5.22962 21.8778 0.727393 25.9749 0.727393 25.9749C-0.349092 26.919 -0.209638 28.6378 1.00665 29.3955L6.89251 33.0618C6.89251 34.6405 6.89251 34.2759 6.89251 35.8514C6.89251 36.8608 7.52567 37.7203 8.41571 38.0602V56.0563C8.41571 57.4208 9.52185 58.5268 10.8863 58.5268C12.2507 58.5268 13.3568 57.4207 13.3568 56.0563V38.2176H15.2783V56.0564C15.2783 56.8755 15.0534 57.6419 14.663 58.2982C14.9777 58.4435 15.327 58.5269 15.6965 58.5269C17.061 58.5269 18.167 57.4208 18.167 56.0564L18.107 32.6781C16.5243 32.7243 16.5638 32.7241 16.4741 32.7241C14.7373 32.7241 13.4769 31.5456 13.1468 30.7312L10.1514 23.3411L14.8819 30.0277C14.882 30.0279 14.8821 30.028 14.8821 30.0281C15.2678 30.5726 15.8972 30.8699 16.5309 30.8508C17.5097 30.822 23.5197 30.6465 24.3196 30.6232C25.415 30.5917 26.243 29.671 26.212 28.6169C26.212 28.6169 26.212 28.6166 26.212 28.6162C26.1827 27.6306 25.3996 26.7246 24.2054 26.7246ZM6.89228 28.0263L5.70997 27.2898L6.89228 26.2528V28.0263Z" fill="#FFE100"/>
    </g>
    <defs>
        <clipPath id="clip0">
            <rect width="60" height="60" fill="white"/>
        </clipPath>
    </defs>
</svg>
