<svg width="52" height="52" viewBox="0 0 52 52" fill="none" xmlns="http://www.w3.org/2000/svg">
    <g clip-path="url(#clip0)">
        <path d="M19.7257 42.136H32.2769V43.0325H19.7257V42.136Z" fill="#FFE100"/>
        <path d="M31.9578 47.5151H19.9875C20.079 47.8224 20.1941 48.1223 20.3325 48.4116H31.6045C31.7437 48.1219 31.8615 47.822 31.9578 47.5151Z" fill="#FFE100"/>
        <path d="M26.4181 51.9842C27.8911 51.8831 29.2774 51.2509 30.3197 50.2047H21.6155C21.6479 50.2362 21.6755 50.2704 21.7052 50.3006C22.9708 51.4974 24.6806 52.1085 26.4181 51.9842Z" fill="#FFE100"/>
        <path d="M32.2769 44.8256H19.7257V45.7221H32.2651C32.2686 45.6407 32.2769 44.8256 32.2769 44.8256Z" fill="#FFE100"/>
        <path d="M32.2769 39.6606C32.2852 37.6925 33.2106 35.8408 34.7799 34.6528C39.3886 31.0886 41.3838 25.0901 39.8276 19.4756C38.2714 13.8605 33.4737 9.74482 27.6875 9.06105C27.122 8.99714 26.5533 8.96475 25.9842 8.96431C22.4647 8.95293 19.0669 10.2504 16.4514 12.6051C13.2733 15.4404 11.5197 19.5417 11.665 23.7979C11.8103 28.0546 13.8398 32.0267 17.2039 34.6388C18.7802 35.8303 19.7122 37.6877 19.7257 39.6637V40.3431H32.2769V39.6606ZM27.3846 12.63C27.3505 12.63 27.3163 12.6283 27.2822 12.6248C26.8571 12.5757 26.4294 12.5512 26.0013 12.5512C25.5062 12.5512 25.1048 12.1498 25.1048 11.6547C25.1048 11.1596 25.5062 10.7582 26.0013 10.7582C26.4968 10.76 26.9924 10.7902 27.4848 10.8479C27.955 10.9035 28.3008 11.3155 28.2741 11.7882C28.2478 12.261 27.8578 12.6318 27.3846 12.6344V12.63ZM29.6311 12.1892C29.8211 11.7318 30.3455 11.5151 30.803 11.7051C34.9752 13.4263 37.8989 17.2584 38.4575 21.737C38.5161 22.2286 38.1655 22.6751 37.6739 22.7337C37.1819 22.7928 36.7358 22.4417 36.6767 21.9502C36.1974 18.1133 33.6908 14.8306 30.1153 13.358C29.6613 13.168 29.4455 12.648 29.6311 12.1927V12.1892Z" fill="#FFE100"/>
        <path d="M26.0013 5.37907C26.4964 5.37907 26.8978 4.97765 26.8978 4.48256V0.896511C26.8978 0.401416 26.4964 0 26.0013 0C25.5062 0 25.1048 0.401416 25.1048 0.896511V4.48256C25.1048 4.97765 25.5062 5.37907 26.0013 5.37907Z" fill="#FFE100"/>
        <path d="M15.3631 7.57253C15.522 7.85225 15.8188 8.0256 16.1406 8.02604C16.4623 8.02692 16.7595 7.85532 16.9198 7.57603C17.08 7.29719 17.0787 6.95355 16.9158 6.67602L15.1228 3.57062C14.8737 3.14557 14.3278 3.00111 13.901 3.24756C13.4747 3.49402 13.3267 4.03901 13.5701 4.46713L15.3631 7.57253Z" fill="#FFE100"/>
        <path d="M9.36814 13.5674L6.26274 11.7744C5.83419 11.531 5.28962 11.679 5.04317 12.1058C4.79672 12.5326 4.94118 13.078 5.36623 13.3275L8.47163 15.1205C8.90019 15.3639 9.44475 15.216 9.6912 14.7892C9.93765 14.3624 9.7932 13.8169 9.36814 13.5674Z" fill="#FFE100"/>
        <path d="M7.17458 24.2057C7.17458 23.7106 6.77317 23.3092 6.27807 23.3092H2.69202C2.19693 23.3092 1.79551 23.7106 1.79551 24.2057C1.79551 24.7008 2.19693 25.1022 2.69202 25.1022H6.27807C6.77317 25.1022 7.17458 24.7008 7.17458 24.2057Z" fill="#FFE100"/>
        <path d="M8.47163 33.2908L5.36623 35.0838C5.08651 35.2432 4.9136 35.5395 4.91272 35.8613C4.91185 36.183 5.08388 36.4807 5.36273 36.6409C5.64158 36.8011 5.98521 36.7994 6.26274 36.637L9.36814 34.8439C9.64786 34.6846 9.82077 34.3882 9.82165 34.0665C9.82252 33.7448 9.65049 33.4471 9.37164 33.2869C9.0928 33.1267 8.74916 33.1284 8.47163 33.2908Z" fill="#FFE100"/>
        <path d="M46.6359 35.0838L43.5306 33.2908C43.253 33.1284 42.9098 33.1267 42.6305 33.2869C42.3517 33.4471 42.1801 33.7448 42.1805 34.0665C42.1814 34.3883 42.3543 34.6846 42.6341 34.844L45.7394 36.637C46.168 36.8804 46.7126 36.7324 46.959 36.3056C47.2055 35.8788 47.0614 35.3334 46.6359 35.0838Z" fill="#FFE100"/>
        <path d="M49.3106 23.3092H45.7246C45.2295 23.3092 44.828 23.7106 44.828 24.2057C44.828 24.7008 45.2295 25.1022 45.7246 25.1022H49.3106C49.8057 25.1022 50.2071 24.7008 50.2071 24.2057C50.2071 23.7106 49.8057 23.3092 49.3106 23.3092Z" fill="#FFE100"/>
        <path d="M43.0832 15.2405C43.2408 15.2405 43.3953 15.1989 43.5314 15.1205L46.6373 13.3275C47.0623 13.078 47.2063 12.5326 46.9599 12.1058C46.7134 11.679 46.1689 11.531 45.7407 11.7744L42.6349 13.5674C42.2839 13.7705 42.1123 14.1842 42.2173 14.576C42.3224 14.9678 42.6774 15.2405 43.0832 15.2405Z" fill="#FFE100"/>
        <path d="M35.4147 7.90084C35.8432 8.1486 36.3917 8.00152 36.6391 7.57252L38.4321 4.46713C38.6759 4.03901 38.528 3.49401 38.1012 3.24756C37.6743 3.00111 37.1285 3.14557 36.8794 3.57062L35.0864 6.67601C34.839 7.10501 34.9857 7.65307 35.4147 7.90084Z" fill="#FFE100"/>
    </g>
    <defs>
        <clipPath id="clip0">
            <rect width="52" height="52" fill="white"/>
        </clipPath>
    </defs>
</svg>
