<svg width="34" height="34" viewBox="0 0 34 34" fill="none" xmlns="http://www.w3.org/2000/svg">
    <g clip-path="url(#clip0)">
        <path d="M17 10.9286C15.994 10.9286 15.1785 10.1131 15.1785 9.1071C15.1785 8.10114 15.994 7.28564 17 7.28564C18.006 7.28564 18.8215 8.10114 18.8215 9.1071C18.8215 10.1131 18.006 10.9286 17 10.9286Z" fill="#FFE100"/>
        <path d="M13.7718 2.46011C12.8489 2.7679 12.5715 3.60456 12.3486 4.27665C12.0281 5.24386 11.7415 6.08961 9.81316 6.13145C10.2617 3.30347 12.3305 1.00329 15.0953 0.258545C14.9618 1.05217 14.626 2.17417 13.7718 2.46011Z" fill="#FFE100"/>
        <path d="M23.0058 11.4106L22.9682 11.4622C22.9324 11.5108 22.8929 11.5648 22.8467 11.6255C21.7044 13.2257 20.7604 14.9586 20.0357 16.7862L20.0357 15.7857C20.0357 15.4504 19.7639 15.1785 19.4285 15.1785C19.0933 15.1785 18.8214 15.4503 18.8214 15.7857L18.8214 22.4642C18.8252 22.4994 18.8321 22.5342 18.842 22.568C18.8137 25.5013 19.9916 28.3175 22.1 30.3571L11.9 30.3571C14.3809 27.9377 15.5586 24.4797 15.0699 21.049C15.9041 22.8235 16.3549 24.7539 16.3928 26.7142C16.3928 27.0495 16.6646 27.3214 17 27.3214C17.3353 27.3214 17.6072 27.0496 17.6072 26.7142C17.6072 21.9919 14.8452 17.9635 13.9801 16.8178C13.2596 14.9885 12.3184 13.254 11.1776 11.6528C11.1071 11.5642 11.0677 11.5101 11.0319 11.4616L10.9942 11.41C10.9942 11.4063 10.9869 11.4045 10.9839 11.4009C10.1645 10.2069 9.72233 8.79444 9.71437 7.34639C12.6159 7.3106 13.1441 5.7302 13.4987 4.6592C13.7185 3.99739 13.8387 3.71749 14.1538 3.6125C15.7931 3.06305 16.2345 1.12021 16.351 0.0303483C16.5677 0.0127507 16.7827 6.55938e-07 17 6.36937e-07C17.752 0.000332602 18.4993 0.11734 19.2154 0.346707C19.0525 0.891239 18.927 1.44626 18.8397 2.00786C18.5831 3.10343 19.2101 4.21261 20.281 4.55786L20.4261 4.60341C20.6291 4.6586 20.8261 4.73364 21.0144 4.82747C21.1852 4.93139 21.3262 5.07782 21.4236 5.25247C21.4521 5.30891 21.4843 5.38541 21.5165 5.46251C21.5676 5.58848 21.6251 5.71167 21.6889 5.83166C22.0782 6.44705 22.7783 6.79369 23.5037 6.73021L23.5468 6.73021C23.7788 6.72655 24.0155 6.715 24.2571 6.6974C24.2723 6.89171 24.2857 7.08594 24.2857 7.28271C24.288 8.75374 23.8433 10.1907 23.0107 11.4034L23.0058 11.4106ZM22.4334 8.91477C22.3824 8.76197 22.2727 8.63567 22.1285 8.56375C21.8297 8.41453 21.4664 8.53466 21.3155 8.83269C20.9516 9.43726 20.4295 9.93099 19.8056 10.2607C19.9575 9.89506 20.0356 9.50306 20.0357 9.10715C20.0389 7.87884 19.3016 6.76965 18.1679 6.29717C17.0341 5.82462 15.7273 6.08188 14.8573 6.94882C13.9872 7.81582 13.7253 9.12163 14.1938 10.2571C13.5725 9.9288 13.0524 9.43746 12.6893 8.83582C12.5923 8.64171 12.3992 8.51401 12.1826 8.50093C11.9659 8.48785 11.7588 8.59131 11.6392 8.77233C11.5195 8.95335 11.5055 9.18452 11.6025 9.37862C11.6571 9.49158 13.0274 12.1429 17 12.1429C20.9726 12.1429 22.3428 9.49151 22.4006 9.37862C22.4726 9.23445 22.4844 9.06757 22.4334 8.91477Z" fill="#FFE100"/>
        <path d="M22.7514 5.24758C22.7086 5.16457 22.6698 5.07944 22.6355 4.99258C22.5905 4.88753 22.5457 4.78254 22.4941 4.68233C22.2892 4.30707 21.9869 3.9939 21.6192 3.77589C21.3543 3.63623 21.0752 3.52527 20.7868 3.44498L20.6575 3.40428C20.1602 3.23853 19.9502 2.82568 20.0418 2.18028C20.1136 1.71929 20.215 1.26341 20.3453 0.81543C21.0108 1.16048 21.6194 1.60566 22.1498 2.13539C23.0781 3.06248 23.7369 4.22453 24.0556 5.49714C23.8771 5.50809 23.7017 5.51659 23.5298 5.51898C23.2966 5.52928 22.8893 5.49043 22.7514 5.24758Z" fill="#FFE100"/>
        <path d="M10.3214 31.5715L23.6786 31.5715C24.0138 31.5715 24.2857 31.8433 24.2857 32.1787L24.2857 34.0001L9.71425 34.0001L9.71425 32.1786C9.71432 31.8433 9.98612 31.5715 10.3214 31.5715ZM18.2143 33.3929L19.4286 33.3929C19.7639 33.3929 20.0358 33.1211 20.0358 32.7858C20.0358 32.4505 19.764 32.1786 19.4286 32.1786L18.2143 32.1786C17.879 32.1786 17.6072 32.4504 17.6072 32.7858C17.6072 33.1211 17.879 33.3929 18.2143 33.3929ZM13.3572 33.3929L15.7857 33.3929C16.121 33.3929 16.3929 33.1211 16.3929 32.7858C16.3929 32.4505 16.1211 32.1786 15.7857 32.1786L13.3572 32.1786C13.0219 32.1786 12.75 32.4504 12.75 32.7858C12.75 33.1211 13.0218 33.3929 13.3572 33.3929Z" fill="#FFE100"/>
    </g>
    <defs>
        <clipPath id="clip0">
            <rect width="34" height="34" fill="white" transform="matrix(-1 8.74228e-08 8.74228e-08 1 34 0)"/>
        </clipPath>
    </defs>
</svg>
