<svg width="26" height="26" viewBox="0 0 26 26" fill="none" xmlns="http://www.w3.org/2000/svg">
    <path d="M22.1406 0C21.28 0 20.494 0.297832 19.8555 0.781168V0.761719C19.8555 0.340691 19.5148 0 19.0938 0H6.90625C6.48522 0 6.14453 0.340691 6.14453 0.761719V0.781168C5.50601 0.297832 4.72002 0 3.85938 0C1.75942 0 0.0507812 1.70864 0.0507812 3.80859C0.0507812 5.92191 1.89704 7.25791 3.52686 8.43619C4.87251 9.40992 6.14453 10.3293 6.14453 11.4258C6.14453 14.1074 8.13439 16.3331 10.7148 16.7035V18.3828H15.2852V16.7035C17.8656 16.3331 19.8555 14.1074 19.8555 11.4258C19.8555 10.3293 21.1275 9.40992 22.4731 8.43619C24.103 7.25791 25.9492 5.92191 25.9492 3.80859C25.9492 1.70864 24.2406 0 22.1406 0V0ZM4.41949 7.20139C2.95633 6.14357 1.57422 5.14384 1.57422 3.80859C1.57422 2.54851 2.59929 1.52344 3.85938 1.52344C5.11946 1.52344 6.14453 2.54851 6.14453 3.80859C6.14453 4.22886 5.80308 4.57031 5.38281 4.57031C4.96255 4.57031 4.62109 4.22886 4.62109 3.80859C4.62109 3.38757 4.2804 3.04688 3.85938 3.04688C3.43835 3.04688 3.09766 3.38757 3.09766 3.80859C3.09766 5.06868 4.12273 6.09375 5.38281 6.09375C5.65114 6.09375 5.9051 6.0388 6.14453 5.95344V8.5474C5.62133 8.07097 5.01673 7.63339 4.41949 7.20139ZM16.43 7.98241L15.2673 9.11534L15.5418 10.7154C15.5909 11.001 15.4733 11.2897 15.239 11.46C15.0093 11.6277 14.6978 11.6557 14.4363 11.5181L13 10.763L11.5636 11.518C11.307 11.6541 10.996 11.6311 10.761 11.46C10.5266 11.2896 10.4091 11.001 10.4582 10.7154L10.7327 9.11529L9.56998 7.98236C9.36244 7.78004 9.28804 7.47728 9.37732 7.20205C9.4673 6.92605 9.70536 6.72521 9.99248 6.68357L11.5985 6.44998L12.317 4.995C12.5729 4.47429 13.4269 4.47429 13.6828 4.995L14.4014 6.44998L16.0074 6.68357C16.2945 6.72521 16.5325 6.92605 16.6225 7.20205C16.7119 7.47734 16.6375 7.78009 16.43 7.98241ZM21.5805 7.20139C20.9833 7.63339 20.3787 8.07097 19.8555 8.5474V5.95344C20.0949 6.0388 20.3489 6.09375 20.6172 6.09375C21.8773 6.09375 22.9023 5.06868 22.9023 3.80859C22.9023 3.38757 22.5617 3.04688 22.1406 3.04688C21.7196 3.04688 21.3789 3.38757 21.3789 3.80859C21.3789 4.22886 21.0375 4.57031 20.6172 4.57031C20.1969 4.57031 19.8555 4.22886 19.8555 3.80859C19.8555 2.54851 20.8805 1.52344 22.1406 1.52344C23.4007 1.52344 24.4258 2.54851 24.4258 3.80859C24.4258 5.14384 23.0437 6.14357 21.5805 7.20139Z" fill="#FFE100"/>
    <path d="M19.8324 20.4835C19.7476 20.1443 19.4434 19.9062 19.0937 19.9062H6.90624C6.55661 19.9062 6.25238 20.1443 6.16757 20.4835L4.64414 25.0538C4.58685 25.2814 4.63819 25.5225 4.78251 25.7069C4.92684 25.8921 5.1485 26 5.3828 26H20.6172C20.8515 26 21.0731 25.8921 21.2175 25.7069C21.3618 25.5225 21.4131 25.2814 21.3558 25.0538L19.8324 20.4835ZM16.0469 23.7148H9.95311C9.53208 23.7148 9.19139 23.3742 9.19139 22.9531C9.19139 22.5321 9.53208 22.1914 9.95311 22.1914H16.0469C16.4679 22.1914 16.8086 22.5321 16.8086 22.9531C16.8086 23.3742 16.4679 23.7148 16.0469 23.7148Z" fill="#FFE100"/>
    <path d="M13.2127 7.48317L13 7.05249L12.7873 7.48317C12.6764 7.70782 12.4622 7.86402 12.2138 7.89972L11.7392 7.96889L12.0829 8.30435C12.2621 8.47914 12.344 8.73132 12.3016 8.97827L12.2205 9.45134L12.6452 9.22816C12.8673 9.11121 13.1323 9.11096 13.3549 9.22816L13.7796 9.45134L13.6985 8.97827C13.6561 8.73132 13.7379 8.47914 13.9172 8.30435L14.2609 7.96889L13.7863 7.89972C13.5378 7.86402 13.3236 7.70782 13.2127 7.48317Z" fill="#FFE100"/>
</svg>
