<svg width="26" height="26" viewBox="0 0 26 26" fill="none" xmlns="http://www.w3.org/2000/svg">
    <path d="M2.55572 23.715V19.4731H0.617502C0.403666 19.4731 0.204706 19.5838 0.0924321 19.7657C-0.0202388 19.948 -0.0305537 20.1756 0.0650578 20.367L1.25028 22.7364L0.0650578 25.1063C-0.0305537 25.2979 -0.0202388 25.5252 0.0924321 25.7071C0.204706 25.8894 0.403666 26.0001 0.617502 26.0001H4.84088C3.58106 26.0001 2.55572 24.9748 2.55572 23.715Z" fill="#FFE100"/>
    <path d="M24.7497 22.7364L25.9349 20.367C26.0305 20.1756 26.0202 19.948 25.9076 19.7657C25.7953 19.5838 25.5963 19.4731 25.3825 19.4731H23.4443V23.715C23.4443 24.9748 22.4189 26.0001 21.1591 26.0001H25.3825C25.5963 26.0001 25.7953 25.8894 25.9076 25.7071C26.0202 25.5252 26.0305 25.2979 25.9349 25.1063L24.7497 22.7364Z" fill="#FFE100"/>
    <path d="M2.68704 17.9496C3.00145 17.0631 3.84807 16.4261 4.84128 16.4261H5.1785C4.46716 15.1253 4.09563 13.6748 4.09563 12.1669C4.09563 7.25755 8.09009 3.26349 13 3.26349C17.9075 3.26349 21.9002 7.25755 21.9002 12.1669C21.9002 13.6782 21.5293 15.1284 20.8189 16.4261H21.1589C22.1519 16.4261 22.9986 17.0631 23.3132 17.9496H23.7335C24.686 16.1847 25.1839 14.2168 25.1839 12.1839C25.1839 5.46553 19.7184 0 13 0C6.2816 0 0.816071 5.46553 0.816071 12.1839C0.816071 14.2189 1.31297 16.1871 2.26314 17.9496H2.68704Z" fill="#FFE100"/>
    <path d="M13 4.78687C8.93018 4.78687 5.61908 8.09756 5.61908 12.1668C5.61908 13.7065 6.08623 15.1738 6.97173 16.4261H19.0247C19.9098 15.1788 20.3768 13.7115 20.3768 12.1668C20.3768 8.09756 17.0675 4.78687 13 4.78687ZM13 14.9856C11.6803 14.9856 10.6066 13.9118 10.6066 12.5921C10.6066 12.1714 10.9475 11.8304 11.3683 11.8304C11.7888 11.8304 12.13 12.1714 12.13 12.5921C12.13 13.0717 12.5204 13.4621 13 13.4621C13.4797 13.4621 13.87 13.0717 13.87 12.5921C13.87 12.1123 13.4797 11.7219 13 11.7219C12.4087 11.7219 12.0427 11.0754 12.3468 10.5682L12.8784 9.6823H11.7761C11.3556 9.6823 11.0144 9.34111 11.0144 8.92058C11.0144 8.49985 11.3556 8.15886 11.7761 8.15886H14.2239C14.815 8.15886 15.1812 8.80533 14.8769 9.31255L14.1638 10.5009C14.8968 10.9106 15.3935 11.6943 15.3935 12.5921C15.3935 13.9118 14.3197 14.9856 13 14.9856Z" fill="#FFE100"/>
    <path d="M21.9206 23.715V18.7114C21.9206 18.2907 21.5794 17.9497 21.1589 17.9497H4.84106C4.42053 17.9497 4.07935 18.2907 4.07935 18.7114V23.715C4.07935 24.1357 4.42053 24.4767 4.84106 24.4767H21.1589C21.5794 24.4767 21.9206 24.1357 21.9206 23.715ZM17.8952 21.9749H8.10475C7.68402 21.9749 7.34303 21.6337 7.34303 21.2132C7.34303 20.7925 7.68402 20.4515 8.10475 20.4515H17.8952C18.3159 20.4515 18.6569 20.7925 18.6569 21.2132C18.6569 21.6337 18.3159 21.9749 17.8952 21.9749Z" fill="#FFE100"/>
</svg>
