<svg width="52" height="52" viewBox="0 0 52 52" fill="none" xmlns="http://www.w3.org/2000/svg">
    <path d="M39.7109 0C38.0281 0 36.6641 1.36409 36.6641 3.04687V17.2246C37.58 16.6968 38.6156 16.3933 39.7094 16.3933C40.7999 16.3933 41.8444 16.6715 42.7578 17.1952C42.7578 16.3295 42.7578 3.71952 42.7578 3.04687C42.7578 1.36409 41.3937 0 39.7109 0Z" fill="#FFE100"/>
    <path d="M12.2891 0C10.6063 0 9.24219 1.36409 9.24219 3.04687C9.24219 3.71952 9.24219 16.3295 9.24219 17.1952C10.1556 16.6716 11.2 16.3933 12.2906 16.3933C13.3844 16.3933 14.42 16.6968 15.3359 17.2246V3.04687C15.3359 1.36409 13.9719 0 12.2891 0Z" fill="#FFE100"/>
    <path d="M42.7578 42.6562H27.5234V52H42.7578V42.6562Z" fill="#FFE100"/>
    <path d="M48.8516 3.04688C47.256 3.04688 45.8047 4.3615 45.8047 6.09375C45.8047 6.56876 45.8047 19.6261 45.8047 23.7767C45.8047 24.5885 45.4807 25.3518 44.9046 25.9238L39.2539 31.535L37.1212 29.4024L41.9046 24.5883C43.0929 23.3694 43.0016 21.4499 41.8743 20.3226C40.7038 19.152 38.731 19.1392 37.5477 20.3226L29.7642 28.106C28.3294 29.5408 27.5234 31.4865 27.5234 33.5156V39.6094H42.8506C43.0773 36.9714 44.315 34.5278 46.3836 32.8454C49.8876 30.0422 52 25.868 52 21.2977V6.09375C52 4.41797 50.5273 3.04688 48.8516 3.04688Z" fill="#FFE100"/>
    <path d="M22.2359 28.106L14.4524 20.3226C13.2691 19.1392 11.2962 19.152 10.1258 20.3226C8.99844 21.4499 8.90713 23.3694 10.0955 24.5883L14.8789 29.4024L12.7462 31.5352L7.09546 25.924C6.5193 25.3519 6.19531 24.5885 6.19531 23.7767C6.19531 19.6261 6.19531 6.56876 6.19531 6.09375C6.19531 4.3615 4.74398 3.04688 3.14844 3.04688C1.47266 3.04688 0 4.41797 0 6.09375V21.2977C0 25.868 2.1124 30.0422 5.61641 32.8454C7.68513 34.5278 8.92267 36.9714 9.14936 39.6094H24.4766V33.5156C24.4766 31.4865 23.6706 29.5408 22.2359 28.106Z" fill="#FFE100"/>
    <path d="M24.4766 42.6562H9.24219V52H24.4766V42.6562Z" fill="#FFE100"/>
    <path d="M26 15.2344C28.5241 15.2344 30.5703 13.1882 30.5703 10.6641C30.5703 8.13995 28.5241 6.09375 26 6.09375C23.4759 6.09375 21.4297 8.13995 21.4297 10.6641C21.4297 13.1882 23.4759 15.2344 26 15.2344Z" fill="#FFE100"/>
    <path d="M27.5234 18.2812H24.4766C22.3487 18.2812 20.4184 19.1566 19.0261 20.5878L24.3902 25.952C25.0329 26.5946 25.5475 27.3231 26 28.0847C26.4525 27.3232 26.967 26.5947 27.6098 25.952L32.974 20.5877C31.5816 19.1566 29.6513 18.2812 27.5234 18.2812Z" fill="#FFE100"/>
</svg>
